<svg width="64" height="82" viewBox="0 0 64 82" fill="none" xmlns="http://www.w3.org/2000/svg">
<path d="M27.1133 80.6367V73.75H34V66.8633H40.8867V60.1367H47.6133V53.25H54.5V46.3633H61.3867V35.6367H54.5V28.75H47.6133V21.8633H40.8867V15.1367H34V8.25H27.1133V1.36328H9.5V8.25H2.59473L2.61328 10.2686L2.64551 13.6641V13.6738L2.69336 17.085L2.7207 19.0293L4.66504 19.0566L8.07617 19.1045H8.08594L9.5 19.1182V25.8447L11.4814 25.8633L14.8828 25.8955L16.334 25.916L16.3545 27.3672L16.3867 30.7686L16.4053 32.75H23.1318L23.1455 34.1641V34.1738L23.1934 37.585L23.2207 39.5293L25.165 39.5566L28.5762 39.6045H28.5859L30 39.6182V42.3828L28.5859 42.3955H28.5762L25.165 42.4434L23.2207 42.4707L23.1934 44.415L23.1455 47.8105V47.8203L23.1318 49.25H16.4053L16.3867 51.2314L16.3545 54.6172L16.333 56.085L14.8828 56.1045V56.1055L11.4814 56.1367L9.5 56.1553V62.8828L8.08594 62.8955H8.07617L4.66504 62.9434L2.7207 62.9707L2.69336 64.915L2.64551 68.3105V68.3203L2.61328 71.7314L2.59473 73.75H9.5V80.6367H27.1133Z" fill="#59A83D" fill-opacity="0.42" stroke="black" stroke-width="4"/>
</svg>